<svg width="50" height="50" viewBox="0 0 50 50" fill="none" xmlns="http://www.w3.org/2000/svg">
<path d="M9.72901 39.1417C12.5711 42.2184 16.2753 44.3661 20.3575 45.3041C24.4397 46.242 28.7099 45.9266 32.6099 44.399C36.51 42.8714 39.8584 40.2027 42.2175 36.7417C44.5767 33.2807 45.8368 29.1885 45.8332 25V12.5C45.8337 12.2152 45.7759 11.9333 45.6632 11.6717C45.5505 11.4102 45.3854 11.1745 45.178 10.9792C44.9707 10.784 44.7255 10.6333 44.4577 10.5366C44.1898 10.4398 43.9049 10.399 43.6207 10.4167C40.9036 10.6797 38.2162 11.1895 35.5915 11.9396C33.0949 8.47424 29.6444 5.80979 25.6603 4.27083C25.231 4.1271 24.7666 4.1271 24.3373 4.27083C20.3716 5.80757 16.9344 8.45763 14.4394 11.9021C11.8056 11.1562 9.10772 10.6589 6.38109 10.4167C6.09667 10.3987 5.81158 10.4393 5.54347 10.5359C5.27536 10.6326 5.02993 10.7832 4.82235 10.9784C4.61477 11.1737 4.44947 11.4095 4.33666 11.6712C4.22385 11.9329 4.16594 12.215 4.16651 12.5V25C4.17231 30.1486 6.09774 35.1099 9.56651 38.9146C9.61519 38.9941 9.6695 39.0699 9.72901 39.1417ZM41.6665 25C41.6615 29.4187 39.904 33.6551 36.7795 36.7796C33.6549 39.9042 29.4186 41.6617 24.9998 41.6667C20.7479 41.6822 16.6553 40.0499 13.5811 37.1125C16.9373 24.1375 28.6061 16.7687 41.6665 14.8333V25ZM18.654 13.2667C20.4 11.2369 22.5649 9.60929 24.9998 8.49583C27.4388 9.59957 29.6047 11.227 31.3436 13.2625C29.1523 14.0766 27.0307 15.0673 24.9998 16.225C24.9353 16.1875 24.8623 16.1562 24.7915 16.1187C23.8818 15.6062 22.9735 15.1368 22.0665 14.7104L21.7498 14.5625C20.7082 14.0833 19.6894 13.6562 18.6894 13.2812L18.654 13.2667ZM8.33317 14.85C12.7395 15.5367 17.0173 16.8831 21.0228 18.8437C16.3082 22.3431 12.6989 27.1239 10.6248 32.6167C10.5853 32.7208 10.5394 32.825 10.4998 32.925C10.4832 32.9708 10.4623 33.0125 10.4457 33.0583C9.0628 30.5975 8.33538 27.8227 8.33317 25V14.85Z" fill="white"/>
</svg>
