<svg
  width="25"
  height="25"
  viewBox="0 0 25 25"
  fill="none"
  xmlns="http://www.w3.org/2000/svg"
  style="width: 25px; height: 25px; position: relative;"
  preserveAspectRatio="xMidYMid meet"
>
  <g clip-path="url(#clip0_26_1217)">
    <path
      d="M20.8658 13.5371C20.8058 13.5068 20.7456 13.4917 20.685 13.4917C20.5546 13.4917 20.4396 13.5418 20.3395 13.6421L19.3773 14.6042C19.2873 14.6945 19.2422 14.8046 19.2422 14.935V18.7531C19.2422 19.4147 19.0072 19.9807 18.5358 20.4519C18.0648 20.9229 17.4985 21.1584 16.837 21.1584H4.32951C3.66797 21.1584 3.10167 20.9229 2.63069 20.4519C2.15959 19.9807 1.92418 19.4147 1.92418 18.7531V6.24587C1.92418 5.58443 2.15959 5.0182 2.63069 4.54705C3.10167 4.07601 3.66797 3.84054 4.32951 3.84054H16.8371C17.0576 3.84054 17.2831 3.87061 17.5135 3.93079C17.5737 3.95069 17.6188 3.96086 17.6485 3.96086C17.779 3.96086 17.8943 3.91089 17.9944 3.81069L18.731 3.07406C18.8512 2.95396 18.8965 2.80853 18.8662 2.6383C18.8361 2.47791 18.7458 2.3626 18.5955 2.29252C18.0546 2.04231 17.468 1.91663 16.8367 1.91663H4.32951C3.1369 1.91663 2.1171 2.34007 1.27022 3.18695C0.423441 4.03394 0 5.05358 0 6.24624V18.7538C0 19.9462 0.423441 20.966 1.27027 21.8128C2.11715 22.6599 3.13695 23.0834 4.32956 23.0834H16.837C18.0294 23.0834 19.0493 22.6599 19.8962 21.8128C20.7432 20.966 21.167 19.9463 21.167 18.7538V13.973C21.1669 13.7627 21.0661 13.6174 20.8658 13.5371Z"
      fill="#3932FF"
    ></path>
    <path
      d="M24.6394 4.90821L22.9856 3.25441C22.7451 3.01394 22.4593 2.89368 22.1285 2.89368C21.7981 2.89368 21.5121 3.01394 21.2717 3.25441L11.5452 12.9809L7.59178 9.02715C7.3512 8.78653 7.06551 8.66642 6.73489 8.66642C6.40423 8.66642 6.11863 8.78653 5.87801 9.02715L4.22441 10.6807C3.98389 10.9213 3.86353 11.207 3.86353 11.5378C3.86353 11.8685 3.98389 12.154 4.22441 12.3947L10.6886 18.8588C10.9291 19.0995 11.2148 19.2196 11.5454 19.2196C11.8761 19.2196 12.1617 19.0996 12.4023 18.8588L24.6393 6.62193C24.8796 6.38146 25.0002 6.09571 25.0002 5.76504C25.0002 5.43438 24.88 5.14868 24.6394 4.90821Z"
      fill="#3932FF"
    ></path>
  </g>
  <defs>
    <clipPath id="clip0_26_1217"><rect width="25" height="25.0001" fill="white"></rect></clipPath>
  </defs>
</svg>