<svg
  width="26"
  height="26"
  viewBox="0 0 26 26"
  fill="none"
  xmlns="http://www.w3.org/2000/svg"
  style="width: 26px; height: 26px; position: relative;"
  preserveAspectRatio="xMidYMid meet"
>
  <g clip-path="url(#clip0_24_1085)">
    <path
      d="M22.75 0H3.25C1.45519 0 0 1.45519 0 3.25V22.75C0 24.5448 1.45519 26 3.25 26H22.75C24.5448 26 26 24.5448 26 22.75V3.25C26 1.45519 24.5448 0 22.75 0ZM17.0219 15.873C17.3396 16.1907 17.3396 16.705 17.0219 17.0219C16.7042 17.3396 16.1899 17.3396 15.873 17.0219L13 14.1489L10.127 17.021C9.80931 17.3388 9.295 17.3388 8.97811 17.021C8.66042 16.7033 8.66042 16.189 8.97811 15.8722L11.8511 13L8.97811 10.1278C8.66042 9.81011 8.66042 9.29581 8.97811 8.97896C9.29581 8.66127 9.81011 8.66127 10.127 8.97896L13 11.8511L15.873 8.97811C16.1907 8.66042 16.705 8.66042 17.0219 8.97811C17.3396 9.29581 17.3396 9.81011 17.0219 10.127L14.1489 13L17.0219 15.873Z"
      fill="#FF0000"
    ></path>
  </g>
  <defs>
    <clipPath id="clip0_24_1085"><rect width="26" height="26" fill="white"></rect></clipPath>
  </defs>
</svg>